<svg xmlns="http://www.w3.org/2000/svg" width="800" viewBox="0 0 375 375" height="800" version="1.0"><path fill="#FFF" d="M-37.5 -37.5H412.5V412.5H-37.5z"/><path fill="#FFF" d="M-37.5 -37.5H412.5V412.5H-37.5z"/><path fill="#14142C" d="M-37.5 -37.5H412.5V412.5H-37.5z"/><path d="M 189.492188 80.515625 C 190.542969 81.144531 190.804688 83.429688 189.925781 84.21875 C 189.085938 84.261719 188.320312 84.226562 187.75 84 C 187.949219 83.332031 189.113281 83.621094 189.492188 83.128906 C 189.492188 82.257812 189.492188 81.386719 189.492188 80.515625 Z M 189.492188 80.515625" fill-rule="evenodd"/><path fill="#F2B10C" d="M 180.996094 83.128906 C 170.964844 87.714844 160.914062 95.492188 163.140625 110.347656 C 164.933594 122.304688 177.335938 128.601562 190.144531 130.382812 C 194.683594 131.011719 198.929688 130.527344 203.210938 131.6875 C 200.964844 132.710938 197.546875 132.558594 195.152344 133.429688 C 198.367188 137.328125 205.589844 139.105469 208.21875 144.316406 C 202 138.921875 190.785156 138.523438 183.175781 134.519531 C 184.578125 138.5625 188.578125 141.160156 189.925781 144.535156 C 180.585938 141.171875 174.945312 134.113281 168.804688 127.550781 C 168.585938 130.757812 170.832031 133.351562 171.851562 136.042969 C 166.917969 132.773438 163.425781 126.175781 161.179688 119.492188 C 159.710938 122.160156 159.628906 126.214844 158.785156 129.511719 C 156.320312 123.445312 155.835938 114.613281 156.390625 106.210938 C 153.867188 107.679688 153.179688 112.867188 150.730469 115.136719 C 150.441406 105.472656 154.914062 98.71875 159.65625 93.363281 C 155.921875 92.859375 151.464844 95.304688 148.550781 97.0625 C 149.785156 92.773438 154.558594 90.039062 159.222656 87.699219 C 165.328125 84.640625 172.671875 82.050781 180.996094 83.128906 Z M 180.996094 83.128906" fill-rule="evenodd"/><path fill="#F2B10C" d="M 184.699219 85.304688 C 183.175781 87.488281 180.597656 88.414062 178.820312 90.316406 C 177.078125 92.179688 176.386719 94.90625 174.03125 96.195312 C 173.679688 95.019531 174.097656 93.078125 172.941406 92.710938 C 170.015625 94.285156 168.230469 97 167.28125 100.550781 C 167.960938 101.285156 168.570312 100.109375 169.238281 100.113281 C 169.667969 100.917969 169.675781 102.148438 170.328125 102.726562 C 171.125 102.726562 171.925781 102.726562 172.722656 102.726562 C 172.535156 108.941406 174.382812 113.117188 178.167969 115.355469 C 180.230469 114.371094 178.855469 109.949219 179.253906 107.300781 C 180.589844 106.308594 181.066406 104.464844 180.78125 101.855469 C 181.640625 101.265625 182.878906 101.050781 183.609375 100.332031 C 188.804688 103.050781 193.820312 105.945312 197.113281 110.566406 C 193.714844 109.515625 190.300781 104.34375 185.351562 105.558594 C 185.285156 106.929688 187.425781 106.097656 187.964844 106.863281 C 190.183594 111.339844 193.886719 118.078125 191.015625 124.285156 C 190.527344 118.75 190.285156 112.964844 186.007812 111.21875 C 185.03125 112.425781 186.335938 113.964844 186.660156 115.574219 C 187.363281 119.101562 186.753906 123.195312 185.570312 125.808594 C 184.765625 122.890625 186.347656 114.394531 183.175781 114.269531 C 180.566406 114.164062 181.351562 120.128906 181.867188 122.324219 C 181.523438 123.347656 181.089844 121.015625 180.125 121.234375 C 180.167969 122.15625 181.121094 123.023438 180.5625 123.847656 C 174.324219 121.230469 170.796875 115.90625 167.933594 109.914062 C 166.832031 114.445312 170.894531 117.53125 172.503906 120.800781 C 168.3125 117.089844 163.808594 112.410156 163.792969 105.558594 C 163.777344 97.082031 171.320312 91.03125 177.296875 87.703125 C 179.570312 86.433594 182.148438 85 184.699219 85.304688 Z M 184.699219 85.304688" fill-rule="evenodd"/><path d="M 201.902344 85.304688 C 203.597656 86.441406 205.03125 87.839844 205.605469 90.097656 C 203.957031 89.015625 201.113281 88.113281 201.902344 85.304688 Z M 201.902344 85.304688" fill-rule="evenodd"/><path fill="#F2B10C" d="M 162.269531 127.769531 C 165.632812 130.359375 166.378906 135.566406 169.890625 138.003906 C 169.539062 139.828125 169.542969 142.007812 169.019531 143.664062 C 168.769531 143.847656 168.4375 143.953125 167.933594 143.882812 C 167.402344 145.625 166.957031 148.539062 167.496094 150.632812 C 169.109375 150.722656 169.382812 149.46875 169.457031 148.019531 C 172.710938 145.179688 177.894531 139.441406 183.828125 142.792969 C 178.035156 142.984375 172.648438 144.632812 172.941406 150.199219 C 176.464844 149.636719 179.328125 146.90625 183.394531 148.238281 C 179.96875 150.183594 174.921875 150.511719 173.8125 154.769531 C 178.171875 156.289062 184.632812 155.707031 186.007812 160.214844 C 183.378906 158.558594 179.71875 157.9375 175.554688 157.820312 C 174.828125 158.542969 174.75 159.917969 173.8125 160.433594 C 170.949219 159.664062 167.382812 159.601562 165.320312 158.035156 C 165.394531 157.3125 166.574219 157.695312 167.277344 157.601562 C 163.851562 152.898438 159.445312 149.175781 159.003906 141.488281 C 159.847656 142.457031 160.523438 143.597656 161.617188 144.316406 C 160.964844 140.132812 159.460938 135.796875 159.875 131.253906 C 160.941406 131.492188 160.882812 132.855469 161.179688 133.867188 C 162.09375 132.382812 161.519531 129.414062 162.269531 127.769531 Z M 162.269531 127.769531" fill-rule="evenodd"/><path fill="#F2B10C" d="M 227.597656 146.277344 C 225.464844 145.800781 223.734375 144.917969 221.71875 144.316406 C 226.039062 150.742188 231.421875 157.984375 232.605469 168.269531 C 230.285156 166.6875 229.113281 161.753906 226.289062 159.777344 C 227.648438 174.917969 222.464844 186.140625 214.097656 192.878906 C 215.542969 189.316406 218.269531 187.035156 218.015625 181.773438 C 213.605469 184.835938 209.515625 188.222656 201.683594 187.871094 C 205.839844 185.5625 210.476562 184.136719 214.097656 181.117188 C 219.6875 176.457031 224.578125 168.953125 224.332031 159.996094 C 223.917969 145.054688 211.566406 139.945312 200.597656 134.953125 C 200.5625 134.703125 200.644531 134.566406 200.8125 134.519531 C 211.886719 135.425781 221.695312 139.476562 227.597656 146.277344 Z M 227.597656 146.277344" fill-rule="evenodd"/><path fill="#F2B10C" d="M 200.597656 207.03125 C 201.175781 207.351562 200.503906 208.226562 199.941406 208.121094 C 199.886719 207.484375 200.351562 207.371094 200.597656 207.03125 Z M 200.597656 207.03125" fill-rule="evenodd"/><path fill="#F2B10C" d="M 199.726562 97.71875 C 199.210938 98.890625 200.496094 100.199219 200.59375 101.636719 C 200.640625 102.308594 200.191406 103.042969 200.378906 103.597656 C 200.871094 105.078125 202.363281 104.609375 202.773438 105.992188 C 194.28125 107.042969 188.300781 101.914062 184.699219 96.628906 C 187.578125 97.597656 189.179688 99.84375 192.320312 100.550781 C 192.296875 98.976562 191.253906 98.421875 191.449219 96.628906 C 193.222656 98.050781 193.566406 100.902344 196.023438 101.636719 C 197.078125 99.789062 196.105469 96.378906 195.804688 94.453125 C 193.933594 92.910156 190.953125 92.480469 190.144531 89.878906 C 192.003906 90.125 192.601562 91.632812 194.714844 91.621094 C 194.898438 86.0625 185.703125 88.007812 184.699219 82.910156 C 185.484375 82.996094 186.152344 83.199219 186.660156 83.566406 C 186.167969 82.386719 184.175781 80.824219 182.957031 79.644531 C 175.207031 78.859375 169.703125 81.910156 164.230469 82.039062 C 167.589844 76.109375 174.484375 73.714844 183.175781 73.113281 C 180.15625 67.710938 174.925781 62.632812 172.722656 55.691406 C 173.566406 55.382812 174.039062 56.632812 174.464844 57.214844 C 178.191406 62.289062 182.21875 68.4375 187.09375 72.460938 C 185.933594 65.007812 186.582031 56.160156 190.796875 52.207031 C 188.382812 57.296875 188.769531 67.589844 191.449219 72.023438 C 193.320312 67 194.785156 61.570312 199.726562 59.613281 C 198.765625 62.074219 195.433594 64.410156 194.933594 67.886719 C 194.375 71.777344 195.375 75.109375 197.546875 77.25 C 198.527344 74.671875 197.828125 70.417969 199.289062 68.320312 C 199.914062 72.34375 200.175781 76.726562 202.339844 79.210938 C 204.578125 75.925781 205.71875 70.402344 209.089844 68.976562 C 207.695312 73.636719 205.207031 76.636719 205.820312 81.605469 C 206.34375 85.820312 209.5625 90.609375 211.917969 92.929688 C 212.898438 93.894531 216.28125 95.25 216.492188 96.628906 C 216.710938 98.066406 215 98.996094 214.53125 100.113281 C 213.492188 102.601562 214.292969 105.078125 213.660156 107.519531 C 211.8125 105.882812 212.683594 101.527344 211.265625 99.460938 C 210.125 99.265625 210.445312 100.527344 209.304688 100.332031 C 206.839844 97.5 204.449219 94.59375 201.683594 92.058594 C 201.140625 92.382812 200.921875 93.035156 200.597656 93.582031 C 203.726562 97.269531 205.253906 101.917969 207.78125 105.992188 C 209.128906 108.167969 210.914062 110.117188 212.355469 112.308594 C 213.78125 114.476562 215.292969 116.511719 216.710938 118.625 C 214.855469 117.214844 213.511719 115.179688 211.921875 113.179688 C 210.382812 111.246094 208.449219 109.703125 206.910156 107.734375 C 204.390625 104.507812 203.652344 99.617188 199.726562 97.71875 Z M 189.492188 83.128906 C 189.113281 83.621094 187.949219 83.332031 187.75 84 C 188.320312 84.226562 189.085938 84.261719 189.925781 84.21875 C 190.804688 83.429688 190.542969 81.144531 189.492188 80.515625 C 189.492188 81.386719 189.492188 82.257812 189.492188 83.128906 Z M 205.605469 90.097656 C 205.03125 87.839844 203.597656 86.441406 201.902344 85.304688 C 201.113281 88.113281 203.957031 89.015625 205.605469 90.097656 Z M 205.605469 90.097656" fill-rule="evenodd"/><path fill="#F2B10C" d="M 209.304688 142.359375 C 215.070312 146.578125 221.257812 154.039062 220.410156 164.351562 C 219.472656 175.769531 208.566406 184.609375 196.675781 185.472656 C 190.414062 185.929688 184.941406 185.167969 180.128906 183.730469 C 177.648438 182.992188 174.910156 182.222656 173.375 180.464844 C 175.914062 179.664062 179.90625 180.316406 181.652344 178.722656 C 176.554688 176.996094 168.511719 178.21875 164.667969 175.238281 C 166.265625 174.367188 169.75 175.386719 170.546875 173.714844 C 169.386719 171.722656 166.851562 171.828125 165.101562 171.972656 C 158.902344 172.484375 152.132812 178.507812 151.382812 184.820312 C 149.984375 196.644531 158.675781 204.128906 169.894531 203.113281 C 173.996094 202.738281 177.34375 200.886719 181.214844 199.84375 C 177.265625 204.125 168.1875 205.921875 160.3125 204.199219 C 161.363281 206.84375 166.167969 207.867188 170.328125 208.121094 C 177.621094 208.5625 184.796875 205.902344 190.359375 204.636719 C 185.847656 209.046875 176.671875 208.800781 170.109375 211.167969 C 172.921875 213.023438 177.007812 212.707031 181.214844 213.128906 C 196.410156 214.652344 207.507812 208.804688 213.878906 200.5 C 213.511719 200.003906 212.425781 200.625 212.136719 200.933594 C 212.128906 200.234375 214.4375 198.929688 215.402344 199.191406 C 213.445312 203.789062 209.050781 207.4375 204.734375 210.296875 C 197.265625 215.242188 188.378906 217.148438 174.683594 216.175781 C 176.398438 217.984375 179.082031 219.371094 181.867188 220.75 C 184.609375 222.109375 187.683594 222.875 190.359375 224.234375 C 175.867188 223.773438 169.566406 215.121094 159.222656 210.515625 C 159.546875 214.144531 162.648438 216.40625 165.101562 218.574219 C 167.640625 220.816406 170.734375 222.535156 172.941406 224.886719 C 159.007812 218.351562 148.625 208.265625 147.898438 188.523438 C 146.871094 188.589844 146.652344 190.609375 145.9375 190.265625 C 146.113281 184.558594 149.121094 181.6875 149.859375 176.546875 C 151.457031 174.660156 153.378906 173.101562 155.300781 171.539062 C 155.355469 170.804688 154 170.90625 154.648438 170.230469 C 156.433594 169.257812 158.992188 169.058594 160.964844 168.269531 C 160.496094 167.429688 159.015625 167.605469 158.351562 166.964844 C 161.859375 165.761719 166.433594 167.117188 169.457031 167.835938 C 169.738281 167.109375 168.296875 166.242188 168.148438 165.222656 C 171.75 166.265625 173.613281 169.046875 176.640625 170.667969 C 176.714844 169.140625 175.589844 168.8125 175.554688 167.398438 C 180.386719 169.171875 182.40625 173.757812 186.222656 176.546875 C 185.628906 174.234375 183.945312 173.015625 183.390625 170.667969 C 188.667969 173.15625 192.050781 177.542969 197.109375 180.246094 C 196.605469 177.484375 194.199219 174.738281 192.753906 172.191406 C 197.230469 172.796875 200.238281 176.757812 204.078125 178.722656 C 204.523438 175.929688 201.386719 173.746094 201.25 171.535156 C 205.152344 172.421875 208.21875 174.148438 211.484375 175.675781 C 211.132812 173.621094 206.957031 172.375 206.476562 170.449219 C 208.960938 169.960938 211.558594 169.578125 213.878906 168.921875 C 213.039062 168.09375 210.839844 168.625 209.957031 167.835938 C 212.804688 165.09375 216.945312 163.644531 217.578125 158.6875 C 215.523438 159.101562 214.890625 160.9375 212.789062 161.300781 C 213.753906 158.703125 215.414062 155.664062 214.75 152.15625 C 214.070312 151.421875 213.886719 153.023438 213.007812 152.808594 C 213.535156 147.566406 210.992188 145.390625 209.304688 142.359375 Z M 209.304688 142.359375" fill-rule="evenodd"/><g fill="#FFF"><g><g><path d="M 2.078125 0 L 2.078125 -9.8125 L 0.25 -9.8125 L 0.25 -11.5625 L 5.734375 -11.5625 L 5.734375 -9.8125 L 3.90625 -9.8125 L 3.90625 0 Z M 2.078125 0" transform="translate(170.22 292.522)"/></g></g></g><g fill="#FFF"><g><g><path d="M 0.671875 0 L 0.671875 -9.984375 C 0.671875 -10.429688 0.816406 -10.804688 1.109375 -11.109375 C 1.398438 -11.410156 1.75 -11.5625 2.15625 -11.5625 L 4.25 -11.5625 C 4.65625 -11.5625 5.003906 -11.410156 5.296875 -11.109375 C 5.585938 -10.804688 5.734375 -10.429688 5.734375 -9.984375 L 5.734375 0 L 3.90625 0 L 3.90625 -4.90625 L 2.5 -4.15625 L 2.5 0 Z M 2.5 -6.203125 L 3.90625 -6.953125 L 3.90625 -9.8125 L 2.5 -9.8125 Z M 2.5 -6.203125" transform="translate(177.044 292.522)"/></g></g></g><g fill="#FFF"><g><g><path d="M 2.078125 0 L 2.078125 -9.8125 L 0.25 -9.8125 L 0.25 -11.5625 L 5.734375 -11.5625 L 5.734375 -9.8125 L 3.90625 -9.8125 L 3.90625 0 Z M 2.078125 0" transform="translate(184.285 292.522)"/></g></g></g><g fill="#FFF"><g><g><path d="M 0.671875 -9.984375 C 0.671875 -10.441406 0.816406 -10.816406 1.109375 -11.109375 C 1.398438 -11.410156 1.75 -11.5625 2.15625 -11.5625 L 4.25 -11.5625 C 4.65625 -11.5625 5.003906 -11.410156 5.296875 -11.109375 C 5.585938 -10.804688 5.734375 -10.429688 5.734375 -9.984375 L 5.734375 -9.484375 L 3.90625 -8.5625 L 3.90625 -9.8125 L 2.5 -9.8125 L 2.5 -6.734375 L 5.734375 -8.40625 L 5.734375 -1.578125 C 5.734375 -1.148438 5.585938 -0.78125 5.296875 -0.46875 C 5.003906 -0.15625 4.65625 0 4.25 0 L 2.15625 0 C 1.75 0 1.398438 -0.148438 1.109375 -0.453125 C 0.816406 -0.765625 0.671875 -1.140625 0.671875 -1.578125 L 0.671875 -2.65625 L 2.5 -3.578125 L 2.5 -1.75 L 3.90625 -1.75 L 3.90625 -5.40625 L 0.671875 -3.75 Z M 0.671875 -9.984375" transform="translate(191.11 292.522)"/></g></g></g><g fill="#FFF"><g><g><path d="M 5.734375 -11.5625 L 5.734375 -1.578125 C 5.734375 -1.140625 5.585938 -0.765625 5.296875 -0.453125 C 5.003906 -0.148438 4.65625 0 4.25 0 L 2.15625 0 C 1.75 0 1.398438 -0.15625 1.109375 -0.46875 C 0.816406 -0.78125 0.671875 -1.148438 0.671875 -1.578125 L 0.671875 -11.5625 L 2.5 -11.5625 L 2.5 -1.75 L 3.90625 -1.75 L 3.90625 -11.5625 Z M 5.734375 -11.5625" transform="translate(198.35 292.522)"/></g></g></g><g fill="#F2B10C"><g><g><path d="M 19.636719 -30.363281 L 12.996094 -30.363281 C 12.671875 -31.496094 12.1875 -32.953125 11.621094 -34.046875 L 9.027344 -33.398438 C 9.472656 -32.507812 9.878906 -31.375 10.160156 -30.363281 L 2.550781 -30.363281 L 2.550781 -27.773438 L 19.636719 -27.773438 Z M 6.882812 -7.003906 L 6.882812 -10 L 15.546875 -10 L 15.546875 -7.003906 Z M 15.546875 -14.9375 L 15.546875 -12.105469 L 6.882812 -12.105469 L 6.882812 -14.9375 Z M 18.5 -17.207031 L 4.046875 -17.207031 L 4.046875 3.117188 L 6.882812 3.117188 L 6.882812 -4.898438 L 15.546875 -4.898438 L 15.546875 -0.527344 C 15.546875 -0.0390625 15.425781 0.0820312 14.9375 0.0820312 C 14.453125 0.121094 12.957031 0.121094 11.253906 0.0820312 C 11.660156 0.851562 12.105469 1.984375 12.265625 2.792969 C 14.492188 2.792969 16.152344 2.792969 17.164062 2.308594 C 18.179688 1.78125 18.5 1.011719 18.5 -0.484375 Z M 14.738281 -27.410156 C 14.292969 -25.910156 13.441406 -23.765625 12.671875 -22.1875 L 8.179688 -22.1875 L 9.191406 -22.46875 C 8.988281 -23.765625 8.300781 -25.871094 7.609375 -27.410156 L 5.222656 -26.882812 C 5.828125 -25.382812 6.355469 -23.523438 6.558594 -22.1875 L 1.863281 -22.1875 L 1.863281 -19.59375 L 20.363281 -19.59375 L 20.363281 -22.1875 L 15.34375 -22.1875 C 16.03125 -23.523438 16.800781 -25.183594 17.410156 -26.761719 Z M 27.570312 0.324219 C 25.628906 0.324219 25.304688 0.0390625 25.304688 -1.253906 L 25.304688 -2.957031 L 36.800781 -2.957031 L 36.800781 -4.9375 L 25.304688 -4.9375 L 25.304688 -7.570312 L 36.394531 -7.570312 L 36.394531 -9.554688 L 25.304688 -9.554688 L 25.304688 -12.023438 L 36.640625 -12.023438 L 36.640625 -14.007812 L 25.304688 -14.007812 L 25.304688 -16.476562 L 36.679688 -16.476562 L 36.679688 -24.859375 L 25.304688 -24.859375 L 25.304688 -28.136719 L 38.257812 -28.136719 L 38.257812 -30.648438 L 25.304688 -30.648438 L 25.304688 -33.84375 L 22.386719 -33.84375 L 22.386719 -22.46875 L 33.765625 -22.46875 L 33.765625 -18.824219 L 22.386719 -18.824219 L 22.386719 -1.253906 C 22.386719 2.066406 23.523438 2.832031 27.285156 2.832031 L 34.734375 2.832031 C 37.8125 2.832031 38.621094 1.78125 38.988281 -1.902344 C 38.175781 -2.066406 37.042969 -2.511719 36.355469 -2.957031 C 36.234375 -0.203125 35.949219 0.324219 34.535156 0.324219 Z M 27.570312 0.324219" transform="translate(167.263 266.16)"/></g></g></g></svg>