<svg xmlns="http://www.w3.org/2000/svg" width="1500" viewBox="0 0 1500 750" height="750" version="1.0"><path fill="#FFF" d="M-150 -75H1650V825H-150z"/><path fill="#FFF" d="M-150 -75H1650V825H-150z"/><path fill="#14142C" d="M-150 -75H1650V825H-150z"/><path d="M 297.171875 126.78125 C 301.160156 129.160156 302.152344 137.808594 298.820312 140.792969 C 295.636719 140.953125 292.746094 140.824219 290.578125 139.96875 C 291.34375 137.4375 295.738281 138.535156 297.171875 136.671875 C 297.171875 133.375 297.171875 130.078125 297.171875 126.78125 Z M 297.171875 126.78125" fill-rule="evenodd"/><path fill="#F2B10C" d="M 265.027344 136.671875 C 227.050781 154.027344 189.011719 183.476562 197.4375 239.703125 C 204.222656 284.957031 251.164062 308.796875 299.644531 315.53125 C 316.824219 317.917969 332.90625 316.082031 349.101562 320.476562 C 340.605469 324.347656 327.667969 323.769531 318.601562 327.070312 C 330.773438 341.824219 358.117188 348.546875 368.058594 368.28125 C 344.519531 347.859375 302.074219 346.347656 273.269531 331.191406 C 278.585938 346.496094 293.71875 356.324219 298.820312 369.109375 C 263.472656 356.375 242.113281 329.652344 218.867188 304.816406 C 218.042969 316.953125 226.542969 326.78125 230.40625 336.960938 C 211.738281 324.582031 198.515625 299.617188 190.019531 274.320312 C 184.445312 284.40625 184.132812 299.757812 180.953125 312.234375 C 171.613281 289.285156 169.78125 255.851562 171.882812 224.039062 C 162.328125 229.597656 159.722656 249.242188 150.453125 257.832031 C 149.367188 221.242188 166.289062 195.683594 184.246094 175.410156 C 170.105469 173.496094 153.242188 182.761719 142.210938 189.421875 C 146.878906 173.183594 164.953125 162.824219 182.601562 153.976562 C 205.71875 142.394531 233.507812 132.59375 265.027344 136.671875 Z M 265.027344 136.671875" fill-rule="evenodd"/><path fill="#F2B10C" d="M 279.039062 144.914062 C 273.269531 153.171875 263.507812 156.675781 256.785156 163.871094 C 250.195312 170.929688 247.570312 181.246094 238.652344 186.128906 C 237.332031 181.675781 238.902344 174.335938 234.53125 172.9375 C 223.453125 178.894531 216.695312 189.171875 213.101562 202.613281 C 215.679688 205.402344 217.984375 200.949219 220.519531 200.964844 C 222.140625 204.011719 222.164062 208.660156 224.640625 210.855469 C 227.664062 210.855469 230.683594 210.855469 233.707031 210.855469 C 232.988281 234.378906 239.992188 250.175781 254.3125 258.660156 C 262.128906 254.9375 256.917969 238.191406 258.433594 228.164062 C 263.480469 224.417969 265.28125 217.429688 264.203125 207.558594 C 267.464844 205.324219 272.148438 204.515625 274.917969 201.785156 C 294.578125 212.074219 313.5625 223.039062 326.019531 240.527344 C 313.160156 236.546875 300.234375 216.96875 281.511719 221.570312 C 281.261719 226.765625 289.363281 223.609375 291.402344 226.515625 C 299.800781 243.457031 313.8125 268.96875 302.941406 292.453125 C 301.09375 271.5 300.175781 249.613281 283.984375 243 C 280.296875 247.5625 285.238281 253.390625 286.457031 259.484375 C 289.125 272.839844 286.8125 288.328125 282.335938 298.226562 C 279.289062 287.171875 285.277344 255.023438 273.269531 254.539062 C 263.386719 254.140625 266.359375 276.71875 268.324219 285.035156 C 267.019531 288.902344 265.375 280.074219 261.730469 280.914062 C 261.882812 284.398438 265.484375 287.675781 263.375 290.808594 C 239.765625 280.898438 226.410156 260.734375 215.570312 238.054688 C 211.402344 255.207031 226.789062 266.898438 232.878906 279.265625 C 217.007812 265.21875 199.957031 247.503906 199.910156 221.570312 C 199.847656 189.484375 228.398438 166.585938 251.011719 153.980469 C 259.628906 149.175781 269.386719 143.761719 279.039062 144.914062 Z M 279.039062 144.914062" fill-rule="evenodd"/><path d="M 344.152344 144.914062 C 350.574219 149.210938 355.996094 154.5 358.167969 163.046875 C 351.929688 158.960938 341.164062 155.539062 344.152344 144.914062 Z M 344.152344 144.914062" fill-rule="evenodd"/><path fill="#F2B10C" d="M 194.140625 305.640625 C 206.867188 315.445312 209.6875 335.15625 222.988281 344.382812 C 221.652344 351.285156 221.664062 359.539062 219.691406 365.8125 C 218.734375 366.503906 217.484375 366.898438 215.570312 366.636719 C 213.566406 373.230469 211.875 384.261719 213.921875 392.1875 C 220.027344 392.523438 221.058594 387.78125 221.339844 382.296875 C 233.660156 371.554688 253.285156 349.828125 275.742188 362.515625 C 253.820312 363.242188 233.414062 369.480469 234.527344 390.539062 C 247.859375 388.417969 258.707031 378.082031 274.09375 383.121094 C 261.125 390.488281 242.035156 391.726562 237.824219 407.847656 C 254.324219 413.601562 278.785156 411.398438 283.984375 428.453125 C 274.035156 422.195312 260.179688 419.839844 244.417969 419.386719 C 241.667969 422.132812 241.371094 427.328125 237.824219 429.277344 C 226.988281 426.375 213.488281 426.144531 205.679688 420.210938 C 205.96875 417.476562 210.429688 418.917969 213.097656 418.5625 C 200.125 400.765625 183.453125 386.664062 181.777344 357.570312 C 184.96875 361.242188 187.527344 365.554688 191.667969 368.285156 C 189.199219 352.445312 183.5 336.027344 185.074219 318.828125 C 189.105469 319.742188 188.894531 324.898438 190.019531 328.722656 C 193.472656 323.105469 191.296875 311.863281 194.140625 305.640625 Z M 194.140625 305.640625" fill-rule="evenodd"/><path fill="#F2B10C" d="M 441.417969 375.703125 C 433.335938 373.890625 426.789062 370.546875 419.160156 368.285156 C 435.511719 392.59375 455.894531 420.019531 460.375 458.953125 C 451.589844 452.953125 447.144531 434.277344 436.46875 426.804688 C 441.609375 484.113281 421.988281 526.59375 390.3125 552.089844 C 395.789062 538.609375 406.109375 529.96875 405.148438 510.054688 C 388.449219 521.652344 372.964844 534.46875 343.332031 533.132812 C 359.0625 524.40625 376.605469 519.007812 390.3125 507.582031 C 411.480469 489.941406 429.988281 461.53125 429.050781 427.632812 C 427.492188 371.074219 380.742188 351.726562 339.210938 332.84375 C 339.078125 331.886719 339.394531 331.375 340.035156 331.195312 C 381.945312 334.621094 419.082031 349.953125 441.417969 375.703125 Z M 441.417969 375.703125" fill-rule="evenodd"/><path fill="#F2B10C" d="M 339.210938 605.667969 C 341.410156 606.871094 338.863281 610.1875 336.738281 609.789062 C 336.53125 607.382812 338.289062 606.945312 339.210938 605.667969 Z M 339.210938 605.667969" fill-rule="evenodd"/><path fill="#F2B10C" d="M 335.914062 191.898438 C 333.964844 196.335938 338.835938 201.292969 339.207031 206.734375 C 339.382812 209.265625 337.683594 212.046875 338.382812 214.152344 C 340.246094 219.753906 345.890625 217.984375 347.449219 223.21875 C 315.300781 227.1875 292.671875 207.78125 279.039062 187.777344 C 289.933594 191.441406 295.988281 199.949219 307.886719 202.613281 C 307.800781 196.652344 303.851562 194.558594 304.589844 187.777344 C 311.296875 193.15625 312.601562 203.945312 321.898438 206.734375 C 325.894531 199.734375 322.207031 186.832031 321.074219 179.535156 C 313.992188 173.703125 302.714844 172.066406 299.644531 162.226562 C 306.679688 163.15625 308.949219 168.855469 316.953125 168.820312 C 317.648438 147.773438 282.84375 155.132812 279.039062 135.847656 C 282.015625 136.167969 284.539062 136.941406 286.457031 138.320312 C 284.589844 133.859375 277.054688 127.945312 272.445312 123.484375 C 243.105469 120.507812 222.277344 132.050781 201.558594 132.550781 C 214.277344 110.101562 240.378906 101.035156 273.269531 98.757812 C 261.839844 78.316406 242.046875 59.09375 233.707031 32.816406 C 236.894531 31.652344 238.683594 36.386719 240.300781 38.589844 C 254.402344 57.789062 269.644531 81.058594 288.105469 96.285156 C 283.714844 68.074219 286.160156 34.589844 302.117188 19.632812 C 292.976562 38.894531 294.445312 77.851562 304.589844 94.636719 C 311.675781 75.621094 317.21875 55.066406 335.914062 47.65625 C 332.289062 56.976562 319.667969 65.820312 317.777344 78.976562 C 315.660156 93.710938 319.445312 106.308594 327.667969 114.417969 C 331.375 104.660156 328.730469 88.554688 334.265625 80.625 C 336.625 95.847656 337.625 112.433594 345.804688 121.835938 C 354.277344 109.414062 358.605469 88.5 371.355469 83.097656 C 366.085938 100.742188 356.664062 112.101562 358.992188 130.902344 C 360.964844 146.859375 373.15625 164.980469 382.070312 173.765625 C 385.777344 177.417969 398.578125 182.550781 399.378906 187.777344 C 400.214844 193.210938 393.734375 196.734375 391.960938 200.964844 C 388.015625 210.382812 391.046875 219.757812 388.664062 228.988281 C 381.660156 222.808594 384.96875 206.308594 379.597656 198.492188 C 375.28125 197.746094 376.496094 202.535156 372.179688 201.789062 C 362.84375 191.066406 353.789062 180.066406 343.332031 170.46875 C 341.265625 171.695312 340.4375 174.167969 339.210938 176.238281 C 351.0625 190.195312 356.847656 207.792969 366.410156 223.21875 C 371.511719 231.445312 378.261719 238.824219 383.71875 247.121094 C 389.117188 255.332031 394.84375 263.027344 400.203125 271.023438 C 393.179688 265.691406 388.089844 257.992188 382.074219 250.417969 C 376.253906 243.101562 368.9375 237.265625 363.117188 229.8125 C 353.574219 217.59375 350.777344 199.085938 335.914062 191.898438 Z M 297.171875 136.671875 C 295.738281 138.535156 291.34375 137.4375 290.578125 139.96875 C 292.746094 140.824219 295.636719 140.957031 298.820312 140.796875 C 302.152344 137.808594 301.15625 129.164062 297.171875 126.78125 C 297.171875 130.078125 297.171875 133.375 297.171875 136.671875 Z M 358.167969 163.046875 C 355.996094 154.5 350.574219 149.210938 344.152344 144.914062 C 341.164062 155.539062 351.929688 158.960938 358.167969 163.046875 Z M 358.167969 163.046875" fill-rule="evenodd"/><path fill="#F2B10C" d="M 372.179688 360.867188 C 393.996094 376.84375 417.421875 405.074219 414.214844 444.113281 C 410.667969 487.328125 369.382812 520.792969 324.375 524.066406 C 300.675781 525.792969 279.949219 522.910156 261.730469 517.472656 C 252.34375 514.667969 241.984375 511.765625 236.179688 505.109375 C 245.78125 502.074219 260.894531 504.546875 267.5 498.515625 C 248.214844 491.972656 217.757812 496.605469 203.210938 485.324219 C 209.253906 482.03125 222.449219 485.882812 225.464844 479.554688 C 221.070312 472.015625 211.480469 472.414062 204.859375 472.960938 C 181.394531 474.90625 155.761719 497.707031 152.933594 521.59375 C 147.628906 566.355469 180.53125 594.683594 222.992188 590.828125 C 238.527344 589.417969 251.203125 582.414062 265.851562 578.464844 C 250.898438 594.671875 216.539062 601.464844 186.726562 594.949219 C 190.710938 604.953125 208.890625 608.835938 224.640625 609.789062 C 252.25 611.453125 279.410156 601.386719 300.46875 596.597656 C 283.378906 613.300781 248.652344 612.371094 223.816406 621.324219 C 234.460938 628.355469 249.925781 627.148438 265.851562 628.746094 C 323.363281 634.511719 365.378906 612.382812 389.488281 580.9375 C 388.089844 579.066406 383.984375 581.421875 382.890625 582.585938 C 382.855469 579.933594 391.597656 574.996094 395.257812 575.992188 C 387.84375 593.402344 371.21875 607.199219 354.867188 618.027344 C 326.601562 636.746094 292.964844 643.960938 241.121094 640.28125 C 247.613281 647.125 257.78125 652.371094 268.320312 657.59375 C 278.703125 662.734375 290.328125 665.644531 300.46875 670.78125 C 245.609375 669.042969 221.761719 636.292969 182.601562 618.855469 C 183.835938 632.597656 195.570312 641.152344 204.855469 649.351562 C 214.472656 657.84375 226.179688 664.355469 234.527344 673.253906 C 181.785156 648.519531 142.484375 610.34375 139.742188 535.605469 C 135.851562 535.863281 135.027344 543.5 132.320312 542.199219 C 132.980469 520.601562 144.363281 509.734375 147.160156 490.273438 C 153.214844 483.140625 160.492188 477.230469 167.761719 471.316406 C 167.96875 468.539062 162.832031 468.925781 165.289062 466.371094 C 172.054688 462.691406 181.734375 461.929688 189.191406 458.953125 C 187.429688 455.769531 181.820312 456.433594 179.300781 454.003906 C 192.589844 449.445312 209.898438 454.578125 221.339844 457.300781 C 222.40625 454.558594 216.953125 451.265625 216.394531 447.410156 C 230.027344 451.359375 237.082031 461.890625 248.539062 468.015625 C 248.820312 462.238281 244.558594 461.007812 244.417969 455.652344 C 262.714844 462.359375 270.359375 479.714844 284.804688 490.269531 C 282.5625 481.527344 276.183594 476.914062 274.089844 468.015625 C 294.0625 477.441406 306.863281 494.042969 326.019531 504.28125 C 324.109375 493.828125 314.996094 483.4375 309.53125 473.785156 C 326.46875 476.082031 337.855469 491.070312 352.394531 498.511719 C 354.082031 487.9375 342.207031 479.671875 341.679688 471.3125 C 356.460938 474.667969 368.0625 481.195312 380.417969 486.972656 C 379.085938 479.195312 363.289062 474.484375 361.460938 467.191406 C 370.875 465.34375 380.703125 463.902344 389.484375 461.421875 C 386.3125 458.277344 377.980469 460.289062 374.648438 457.300781 C 385.425781 446.921875 401.097656 441.4375 403.496094 422.683594 C 395.71875 424.246094 393.316406 431.1875 385.363281 432.574219 C 389.019531 422.730469 395.300781 411.234375 392.78125 397.957031 C 390.207031 395.167969 389.511719 401.234375 386.1875 400.425781 C 388.183594 380.582031 378.558594 372.34375 372.179688 360.867188 Z M 372.179688 360.867188" fill-rule="evenodd"/><g fill="#FFF"><g><g><path d="M 18.390625 0 L 18.390625 -86.78125 L 2.203125 -86.78125 L 2.203125 -102.21875 L 50.734375 -102.21875 L 50.734375 -86.78125 L 34.5625 -86.78125 L 34.5625 0 Z M 18.390625 0" transform="translate(815.03 609.407)"/></g></g></g><g fill="#FFF"><g><g><path d="M 5.890625 0 L 5.890625 -88.25 C 5.890625 -92.164062 7.1875 -95.472656 9.78125 -98.171875 C 12.375 -100.867188 15.488281 -102.21875 19.125 -102.21875 L 37.5 -102.21875 C 41.132812 -102.21875 44.25 -100.867188 46.84375 -98.171875 C 49.4375 -95.472656 50.734375 -92.164062 50.734375 -88.25 L 50.734375 0 L 34.5625 0 L 34.5625 -43.390625 L 22.0625 -36.765625 L 22.0625 0 Z M 22.0625 -54.859375 L 34.5625 -61.484375 L 34.5625 -86.78125 L 22.0625 -86.78125 Z M 22.0625 -54.859375" transform="translate(875.315 609.407)"/></g></g></g><g fill="#FFF"><g><g><path d="M 18.390625 0 L 18.390625 -86.78125 L 2.203125 -86.78125 L 2.203125 -102.21875 L 50.734375 -102.21875 L 50.734375 -86.78125 L 34.5625 -86.78125 L 34.5625 0 Z M 18.390625 0" transform="translate(939.276 609.407)"/></g></g></g><g fill="#FFF"><g><g><path d="M 5.890625 -88.25 C 5.890625 -92.269531 7.1875 -95.601562 9.78125 -98.25 C 12.375 -100.894531 15.488281 -102.21875 19.125 -102.21875 L 37.5 -102.21875 C 41.132812 -102.21875 44.25 -100.867188 46.84375 -98.171875 C 49.4375 -95.472656 50.734375 -92.164062 50.734375 -88.25 L 50.734375 -83.828125 L 34.5625 -75.75 L 34.5625 -86.78125 L 22.0625 -86.78125 L 22.0625 -59.5625 L 50.734375 -74.28125 L 50.734375 -13.96875 C 50.734375 -10.144531 49.4375 -6.859375 46.84375 -4.109375 C 44.25 -1.367188 41.132812 0 37.5 0 L 19.125 0 C 15.488281 0 12.375 -1.347656 9.78125 -4.046875 C 7.1875 -6.742188 5.890625 -10.050781 5.890625 -13.96875 L 5.890625 -23.53125 L 22.0625 -31.625 L 22.0625 -15.4375 L 34.5625 -15.4375 L 34.5625 -47.796875 L 5.890625 -33.09375 Z M 5.890625 -88.25" transform="translate(999.562 609.407)"/></g></g></g><g fill="#FFF"><g><g><path d="M 50.734375 -102.21875 L 50.734375 -13.96875 C 50.734375 -10.050781 49.4375 -6.742188 46.84375 -4.046875 C 44.25 -1.347656 41.132812 0 37.5 0 L 19.125 0 C 15.488281 0 12.375 -1.367188 9.78125 -4.109375 C 7.1875 -6.859375 5.890625 -10.144531 5.890625 -13.96875 L 5.890625 -102.21875 L 22.0625 -102.21875 L 22.0625 -15.4375 L 34.5625 -15.4375 L 34.5625 -102.21875 Z M 50.734375 -102.21875" transform="translate(1063.523 609.407)"/></g></g></g><g fill="#F2B10C"><g><g><path d="M 145.074219 -224.339844 L 96.019531 -224.339844 C 93.625 -232.714844 90.035156 -243.484375 85.847656 -251.5625 L 66.703125 -246.773438 C 69.996094 -240.195312 72.984375 -231.820312 75.078125 -224.339844 L 18.84375 -224.339844 L 18.84375 -205.195312 L 145.074219 -205.195312 Z M 50.851562 -51.746094 L 50.851562 -73.882812 L 114.863281 -73.882812 L 114.863281 -51.746094 Z M 114.863281 -110.375 L 114.863281 -89.4375 L 50.851562 -89.4375 L 50.851562 -110.375 Z M 136.699219 -127.125 L 29.914062 -127.125 L 29.914062 23.03125 L 50.851562 23.03125 L 50.851562 -36.195312 L 114.863281 -36.195312 L 114.863281 -3.886719 C 114.863281 -0.300781 113.964844 0.597656 110.375 0.597656 C 106.785156 0.898438 95.71875 0.898438 83.15625 0.597656 C 86.148438 6.28125 89.4375 14.65625 90.632812 20.640625 C 107.085938 20.640625 119.347656 20.640625 126.828125 17.050781 C 134.304688 13.160156 136.699219 7.476562 136.699219 -3.589844 Z M 108.878906 -202.503906 C 105.589844 -191.4375 99.308594 -175.585938 93.625 -163.917969 L 60.421875 -163.917969 L 67.902344 -166.011719 C 66.40625 -175.585938 61.320312 -191.136719 56.234375 -202.503906 L 38.585938 -198.617188 C 43.074219 -187.550781 46.960938 -173.789062 48.457031 -163.917969 L 13.757812 -163.917969 L 13.757812 -144.773438 L 150.457031 -144.773438 L 150.457031 -163.917969 L 113.367188 -163.917969 C 118.453125 -173.789062 124.136719 -186.054688 128.621094 -197.71875 Z M 203.703125 2.394531 C 189.34375 2.394531 186.949219 0.300781 186.949219 -9.273438 L 186.949219 -21.835938 L 271.902344 -21.835938 L 271.902344 -36.492188 L 186.949219 -36.492188 L 186.949219 -55.9375 L 268.910156 -55.9375 L 268.910156 -70.59375 L 186.949219 -70.59375 L 186.949219 -88.839844 L 270.703125 -88.839844 L 270.703125 -103.496094 L 186.949219 -103.496094 L 186.949219 -121.742188 L 271.003906 -121.742188 L 271.003906 -183.660156 L 186.949219 -183.660156 L 186.949219 -207.890625 L 282.667969 -207.890625 L 282.667969 -226.433594 L 186.949219 -226.433594 L 186.949219 -250.066406 L 165.414062 -250.066406 L 165.414062 -166.011719 L 249.46875 -166.011719 L 249.46875 -139.089844 L 165.414062 -139.089844 L 165.414062 -9.273438 C 165.414062 15.253906 173.789062 20.9375 201.609375 20.9375 L 256.644531 20.9375 C 279.378906 20.9375 285.363281 13.160156 288.054688 -14.058594 C 282.070312 -15.253906 273.695312 -18.546875 268.609375 -21.835938 C 267.714844 -1.496094 265.621094 2.394531 255.148438 2.394531 Z M 203.703125 2.394531" transform="translate(818.12 383.446)"/></g></g></g></svg>