<svg xmlns="http://www.w3.org/2000/svg" xmlns:xlink="http://www.w3.org/1999/xlink" width="500" zoomAndPan="magnify" viewBox="0 0 375 374.999991" height="500" preserveAspectRatio="xMidYMid meet" version="1.0"><defs><g><g id="id1"/></g></defs><g fill="rgb(100%, 100%, 100%)" fill-opacity="1"><g transform="translate(120.913516, 278.08629)"><g><path d="M 8.015625 0 L 8.015625 -37.859375 L 0.96875 -37.859375 L 0.96875 -44.59375 L 22.140625 -44.59375 L 22.140625 -37.859375 L 15.078125 -37.859375 L 15.078125 0 Z M 8.015625 0 "/></g></g></g><g fill="rgb(100%, 100%, 100%)" fill-opacity="1"><g transform="translate(147.21034, 278.08629)"><g><path d="M 2.5625 0 L 2.5625 -38.5 C 2.5625 -40.207031 3.128906 -41.648438 4.265625 -42.828125 C 5.398438 -44.003906 6.757812 -44.59375 8.34375 -44.59375 L 16.359375 -44.59375 C 17.941406 -44.59375 19.300781 -44.003906 20.4375 -42.828125 C 21.570312 -41.648438 22.140625 -40.207031 22.140625 -38.5 L 22.140625 0 L 15.078125 0 L 15.078125 -18.921875 L 9.625 -16.046875 L 9.625 0 Z M 9.625 -23.9375 L 15.078125 -26.8125 L 15.078125 -37.859375 L 9.625 -37.859375 Z M 9.625 -23.9375 "/></g></g></g><g fill="rgb(100%, 100%, 100%)" fill-opacity="1"><g transform="translate(175.110535, 278.08629)"><g><path d="M 8.015625 0 L 8.015625 -37.859375 L 0.96875 -37.859375 L 0.96875 -44.59375 L 22.140625 -44.59375 L 22.140625 -37.859375 L 15.078125 -37.859375 L 15.078125 0 Z M 8.015625 0 "/></g></g></g><g fill="rgb(100%, 100%, 100%)" fill-opacity="1"><g transform="translate(201.407359, 278.08629)"><g><path d="M 2.5625 -38.5 C 2.5625 -40.25 3.128906 -41.703125 4.265625 -42.859375 C 5.398438 -44.015625 6.757812 -44.59375 8.34375 -44.59375 L 16.359375 -44.59375 C 17.941406 -44.59375 19.300781 -44.003906 20.4375 -42.828125 C 21.570312 -41.648438 22.140625 -40.207031 22.140625 -38.5 L 22.140625 -36.5625 L 15.078125 -33.046875 L 15.078125 -37.859375 L 9.625 -37.859375 L 9.625 -25.984375 L 22.140625 -32.40625 L 22.140625 -6.09375 C 22.140625 -4.425781 21.570312 -2.992188 20.4375 -1.796875 C 19.300781 -0.597656 17.941406 0 16.359375 0 L 8.34375 0 C 6.757812 0 5.398438 -0.585938 4.265625 -1.765625 C 3.128906 -2.941406 2.5625 -4.382812 2.5625 -6.09375 L 2.5625 -10.265625 L 9.625 -13.796875 L 9.625 -6.734375 L 15.078125 -6.734375 L 15.078125 -20.84375 L 2.5625 -14.4375 Z M 2.5625 -38.5 "/></g></g></g><g fill="rgb(100%, 100%, 100%)" fill-opacity="1"><g transform="translate(229.307553, 278.08629)"><g><path d="M 22.140625 -44.59375 L 22.140625 -6.09375 C 22.140625 -4.382812 21.570312 -2.941406 20.4375 -1.765625 C 19.300781 -0.585938 17.941406 0 16.359375 0 L 8.34375 0 C 6.757812 0 5.398438 -0.597656 4.265625 -1.796875 C 3.128906 -2.992188 2.5625 -4.425781 2.5625 -6.09375 L 2.5625 -44.59375 L 9.625 -44.59375 L 9.625 -6.734375 L 15.078125 -6.734375 L 15.078125 -44.59375 Z M 22.140625 -44.59375 "/></g></g></g><g fill="rgb(94.898987%, 69.40918%, 4.708862%)" fill-opacity="1"><g transform="translate(109.519692, 176.504439)"><g><path d="M 75.664062 -117.003906 L 50.078125 -117.003906 C 48.828125 -121.371094 46.957031 -126.988281 44.773438 -131.199219 L 34.789062 -128.703125 C 36.503906 -125.273438 38.066406 -120.902344 39.15625 -117.003906 L 9.828125 -117.003906 L 9.828125 -107.019531 L 75.664062 -107.019531 Z M 26.519531 -26.988281 L 26.519531 -38.535156 L 59.90625 -38.535156 L 59.90625 -26.988281 Z M 59.90625 -57.566406 L 59.90625 -46.644531 L 26.519531 -46.644531 L 26.519531 -57.566406 Z M 71.292969 -66.300781 L 15.601562 -66.300781 L 15.601562 12.011719 L 26.519531 12.011719 L 26.519531 -18.875 L 59.90625 -18.875 L 59.90625 -2.027344 C 59.90625 -0.15625 59.4375 0.3125 57.566406 0.3125 C 55.695312 0.46875 49.921875 0.46875 43.371094 0.3125 C 44.929688 3.277344 46.644531 7.644531 47.269531 10.765625 C 55.851562 10.765625 62.246094 10.765625 66.144531 8.890625 C 70.046875 6.863281 71.292969 3.898438 71.292969 -1.871094 Z M 56.785156 -105.617188 C 55.070312 -99.84375 51.792969 -91.574219 48.828125 -85.492188 L 31.511719 -85.492188 L 35.414062 -86.582031 C 34.632812 -91.574219 31.980469 -99.6875 29.328125 -105.617188 L 20.125 -103.585938 C 22.464844 -97.816406 24.492188 -90.640625 25.273438 -85.492188 L 7.175781 -85.492188 L 7.175781 -75.507812 L 78.46875 -75.507812 L 78.46875 -85.492188 L 59.125 -85.492188 C 61.777344 -90.640625 64.742188 -97.035156 67.082031 -103.121094 Z M 106.238281 1.246094 C 98.75 1.246094 97.503906 0.15625 97.503906 -4.835938 L 97.503906 -11.386719 L 141.808594 -11.386719 L 141.808594 -19.03125 L 97.503906 -19.03125 L 97.503906 -29.171875 L 140.25 -29.171875 L 140.25 -36.816406 L 97.503906 -36.816406 L 97.503906 -46.332031 L 141.183594 -46.332031 L 141.183594 -53.976562 L 97.503906 -53.976562 L 97.503906 -63.496094 L 141.339844 -63.496094 L 141.339844 -95.789062 L 97.503906 -95.789062 L 97.503906 -108.421875 L 147.425781 -108.421875 L 147.425781 -118.097656 L 97.503906 -118.097656 L 97.503906 -130.421875 L 86.269531 -130.421875 L 86.269531 -86.582031 L 130.109375 -86.582031 L 130.109375 -72.542969 L 86.269531 -72.542969 L 86.269531 -4.835938 C 86.269531 7.957031 90.640625 10.921875 105.148438 10.921875 L 133.851562 10.921875 C 145.707031 10.921875 148.828125 6.863281 150.234375 -7.332031 C 147.113281 -7.957031 142.746094 -9.671875 140.09375 -11.386719 C 139.625 -0.78125 138.53125 1.246094 133.074219 1.246094 Z M 106.238281 1.246094 "/></g></g></g></svg>